<svg width="30" height="30" viewBox="0 0 30 30" fill="none" xmlns="http://www.w3.org/2000/svg">
<path d="M16.1077 3.01538C18.3019 3.01538 18.7654 3.04015 19.8863 3.08878C21.1781 3.15025 22.0686 3.35759 22.8365 3.66401C23.641 3.96952 24.324 4.39797 24.9941 5.07046C25.6771 5.74295 26.0912 6.42828 26.4084 7.23563C26.7129 8.00628 26.9085 8.89896 26.9689 10.2082C27.0301 11.3706 27.042 11.8229 27.042 14.2697V16.2266C27.042 18.6734 27.0301 19.1257 26.9689 20.2881C26.9478 21.357 26.744 22.3707 26.3874 23.3102L26.4075 23.2487C26.0903 24.0561 25.6761 24.7414 25.006 25.4139C24.3231 26.0992 23.641 26.5148 22.8365 26.8332C22.0686 27.1387 21.179 27.335 19.8863 27.3956C18.7279 27.457 18.2653 27.469 15.8271 27.469H13.8889C11.4506 27.469 10.9999 27.457 9.82968 27.3956C8.76459 27.3745 7.75436 27.1699 6.81818 26.8121L6.87943 26.8323C6.03559 26.5084 5.31609 26.0304 4.72275 25.4258L4.72184 25.4249C4.11295 24.8267 3.63207 24.1001 3.32123 23.2882L3.30751 23.2469C2.97199 22.3698 2.76811 21.3551 2.74709 20.2955V20.2863C2.69863 19.3303 2.6712 18.2101 2.6712 17.0844C2.6712 16.8771 2.67212 16.6697 2.67395 16.4633V16.4945V13.9871C2.67395 11.7852 2.69863 11.3201 2.74709 10.1953C2.80834 8.89896 3.01496 8.00537 3.30751 7.23471C3.62475 6.42736 4.0389 5.74203 4.72184 5.06954C5.31152 4.45761 6.03285 3.97778 6.84012 3.67594L6.87943 3.6631C7.75253 3.32272 8.76276 3.11355 9.8187 3.08878H9.82968C10.9514 3.04015 11.414 3.01538 13.6082 3.01538H16.1077ZM16.1324 5.21725H13.5844C11.4753 5.21725 11.0246 5.24202 9.9275 5.29065C8.74539 5.33927 8.09903 5.5356 7.67208 5.70625C7.09885 5.92644 6.69659 6.19525 6.27055 6.62369C5.84452 7.05214 5.57573 7.45582 5.35632 8.03014C5.19815 8.45859 4.99062 9.1063 4.94217 10.3054C4.89371 11.4063 4.86903 11.8467 4.86903 13.9752V16.5193C4.86903 18.6477 4.89371 19.0881 4.94217 20.189C4.99062 21.3753 5.18627 22.0239 5.35632 22.4524C5.57573 23.0276 5.8436 23.4313 6.27055 23.8588C6.6975 24.2864 7.09977 24.5561 7.67208 24.7763C8.09903 24.9478 8.74448 25.1433 9.93938 25.1919C11.1215 25.2533 11.5484 25.2653 14.1814 25.2653H15.5345C18.1794 25.2653 18.5945 25.2533 19.7885 25.1919C20.9706 25.1433 21.6169 24.9469 22.0439 24.7763C22.6171 24.5561 23.0194 24.2873 23.4454 23.8588C23.8714 23.4304 24.1402 23.0267 24.3596 22.4524C24.5306 22.0239 24.7253 21.3762 24.7738 20.189C24.835 18.9899 24.8469 18.5743 24.8469 15.9202V14.5743C24.8469 11.9201 24.835 11.4917 24.7738 10.2926C24.7253 9.1063 24.5297 8.45767 24.3596 8.02922C24.153 7.47784 23.8413 7.00719 23.4463 6.62369L23.4454 6.62278C23.0614 6.22552 22.5933 5.91267 22.0695 5.71359L22.0439 5.70533C21.3747 5.45212 20.6012 5.30074 19.793 5.28973H19.7885C18.8486 5.24202 17.7488 5.2145 16.6417 5.2145C16.4625 5.2145 16.2833 5.21542 16.1041 5.21633H16.1315L16.1324 5.21725ZM14.8644 8.96043C18.3211 8.96043 21.1242 11.7724 21.1242 15.2422C21.1242 18.712 18.322 21.5239 14.8644 21.5239C11.4076 21.5239 8.6046 18.712 8.6046 15.2422C8.6046 11.7724 11.4067 8.96043 14.8644 8.96043ZM14.8644 11.1623C12.619 11.1623 10.7988 12.9889 10.7988 15.2422C10.7988 17.4954 12.619 19.3221 14.8644 19.3221C17.1097 19.3221 18.93 17.4954 18.93 15.2422C18.93 12.9889 17.1097 11.1623 14.8644 11.1623ZM21.3619 7.24756C22.17 7.24756 22.8246 7.90445 22.8246 8.71547C22.8246 9.52649 22.17 10.1834 21.3619 10.1834C20.5537 10.1834 19.8991 9.52649 19.8991 8.71547C19.8991 7.90445 20.5537 7.24756 21.3619 7.24756Z" fill="black"/>
</svg>
