<svg width="190" height="40" viewBox="0 0 190 40" fill="none" xmlns="http://www.w3.org/2000/svg">
<g clip-path="url(#clip0_0_1)">
<path fill-rule="evenodd" clip-rule="evenodd" d="M7.38169 0H30.1614V24.4825C31.4665 16.4146 32.5868 8.16121 33.7995 0H56.5803V40H35.0829V5.68287C33.3279 17.042 31.636 28.4699 30.0549 40H8.6683V4.26049C6.35371 16.077 4.2934 28.1412 2.03097 40H0C2.43629 26.7888 4.85956 13.5632 7.27303 0.32867C7.26299 0.169887 7.25674 0.0188754 7.38171 0" fill="#333333"/>
</g>
<g clip-path="url(#clip1_0_1)">
<path d="M186.77 21C183.151 21 181.341 24.1597 181.341 30.4763C181.341 36.8233 183.251 40 187.079 40C188.258 40 189.23 39.7723 190 39.3193V34.2421C190 31.1633 188.907 29.6257 186.72 29.6257C186.411 29.6257 186.114 29.651 185.824 29.6981V31.739C185.909 31.7239 186.054 31.7153 186.26 31.7153C186.668 31.7153 186.959 31.8524 187.129 32.1261C187.351 32.468 187.463 33.1026 187.463 34.0222V37.9091C187.395 37.926 187.303 37.9341 187.181 37.9341C185.116 37.9341 184.083 35.4464 184.083 30.4763C184.083 25.5365 185.148 23.0685 187.284 23.0685C187.607 23.0685 188.009 23.1169 188.488 23.2121V21.2212C187.943 21.0738 187.369 21 186.77 21Z" fill="#333333"/>
<path d="M76 21.1238V39.8749H78.6108V29.8693L80.3531 34.8003H81.529L83.27 29.8693V39.8749H85.9126V30.4993V21.1238H84.6038L80.939 30.8897L77.3061 21.1238L76 21.1238Z" fill="#333333"/>
<path d="M113.507 21.1238V39.8749H116.12V29.1899L120.551 39.8749H121.858V21.1238H119.219V31.8852L114.814 21.1238L113.507 21.1238Z" fill="#333333"/>
<path d="M132.194 21.1238V39.8749H134.808V29.1899L139.239 39.8749H140.545V21.1238H137.905V31.8852L133.501 21.1238L132.194 21.1238Z" fill="#333333"/>
<path d="M150.88 21.1238V39.8749H153.599V21.1238L150.88 21.1238Z" fill="#333333"/>
<path d="M163.934 21.1238V39.8749H166.547V29.1899L170.98 39.8749H172.286V21.1238H169.646V31.8852L165.24 21.1238L163.934 21.1238Z" fill="#333333"/>
<path d="M98.404 21.125L95.4059 39.875H97.8161L98.277 36.5488H100.99L101.478 39.875H104.013L101.019 21.125H98.404ZM99.6325 26.6387L100.711 34.4824H98.5583L99.6325 26.6387Z" fill="#333333"/>
</g>
<defs>
<clipPath id="clip0_0_1">
<rect width="57" height="40" fill="white"/>
</clipPath>
<clipPath id="clip1_0_1">
<rect width="114" height="19" fill="white" transform="translate(76 21)"/>
</clipPath>
</defs>
</svg>
